<svg width="78" height="67" viewBox="0 0 78 67" fill="none" xmlns="http://www.w3.org/2000/svg">
<g clip-path="url(#clip0_37_37)">
<rect width="78" height="69" rx="17" fill="#261F1E"/>
<path d="M4 31.4818C4 15.7526 16.4296 2.83474 32.1471 2.22902L38.0898 2L40.1796 2L45.1011 2.19553C60.8231 2.82016 73.2469 15.7473 73.2469 31.4818V31.4818H4V31.4818Z" fill="#F2BA52"/>
<rect width="8.27065" height="43.5764" rx="4.13532" transform="matrix(0.537258 0.842189 -0.681923 0.732985 51.7153 7)" fill="#BF2A52"/>
<rect width="8.26432" height="43.6132" rx="4.13216" transform="matrix(0.533679 -0.846911 -0.684794 -0.727167 52.6104 45.8069)" fill="#BF2A52"/>
<path d="M5.00078 52.0097C5.00037 58.0021 9.80441 62.8871 15.7959 62.9869L23.0675 63.1079L41.1351 63.3057L63.3656 62.9636C69.3546 62.8715 74.1621 57.9897 74.1625 52V52L5.00078 52.0097V52.0097Z" fill="#F2BA52"/>
<path d="M13.7574 37.0396C12.8814 37.077 11.8145 37.1444 10.5567 37.2417L10.6578 41.9136L10.3995 49L7.89506 49.2021L7.7603 37.3428C7.10893 37.3577 6.50623 37.3802 5.95219 37.4102C5.40564 37.4401 4.94145 37.4551 4.55961 37.4551L4.76176 35.0181C7.35226 34.6812 10.2535 34.5127 13.4654 34.5127L13.7574 37.0396ZM19.0936 38.5332L21.8226 38.0728V40.3301L21.7553 43.0479L24.9784 42.2617C25.4351 40.8167 25.6635 39.5065 25.6635 38.3311C25.6635 38.084 25.6485 37.8519 25.6185 37.6348C24.3532 37.238 21.8563 36.9647 18.1278 36.8149L18.5546 34.1646C21.7515 34.2918 24.5217 34.5988 26.8651 35.0854C27.0673 35.1304 27.3892 35.4261 27.8309 35.9727C28.2652 36.5117 28.4898 36.8898 28.5048 37.1069C28.5272 37.3241 28.5385 37.5374 28.5385 37.7471V38.376C28.5385 39.3493 28.2914 40.6071 27.7972 42.1494C27.5277 42.988 27.2619 43.527 26.9999 43.7666C26.8801 43.8789 26.7715 43.9613 26.6742 44.0137L25.5736 44.373C26.6667 45.5635 27.6775 46.87 28.6058 48.2925L26.2699 49.876L23.4623 44.9346L21.8226 45.0244L21.7328 49L19.2958 49.2021L19.0936 38.5332ZM34.9416 46.2148C34.4849 42.1045 34.2304 38.3161 34.178 34.8496L37.0305 34.4004L37.4909 45.9678C38.1049 46.3271 39.0108 46.5068 40.2087 46.5068C40.4034 46.5068 40.6617 46.4881 40.9836 46.4507L41.5788 34.3218L44.6672 34.7148L43.6228 45.7993C43.6003 46.0763 43.4094 46.417 43.05 46.8213C42.6981 47.2256 42.4136 47.54 42.1965 47.7646C41.7473 48.2288 41.4478 48.5321 41.2981 48.6743C41.1558 48.8091 41.0211 48.8802 40.8938 48.8877C39.6659 48.9476 38.8611 48.985 38.4792 49C38.0974 49.0225 37.8765 49.0299 37.8166 49.0225C37.7642 49.0225 37.6706 48.985 37.5359 48.9102C37.4011 48.8278 37.2551 48.7305 37.0979 48.6182C36.9481 48.5059 36.8021 48.3861 36.6599 48.2588L35.8064 47.5288C35.2823 47.0796 34.994 46.6416 34.9416 46.2148ZM51.7554 48.2812C51.4485 48.1689 51.2575 48.0866 51.1827 48.0342C51.1078 47.9743 51.0404 47.8994 50.9805 47.8096C50.6436 47.3005 50.4003 45.7881 50.2505 43.2725C50.2131 42.7109 50.1944 42.1606 50.1944 41.6216C50.1944 41.0825 50.2056 40.5846 50.2281 40.1279C50.2505 39.6637 50.2805 39.2257 50.3179 38.814C50.4003 37.8856 50.4752 37.3278 50.5425 37.1406L50.6773 36.7139C50.7971 36.3545 51.0704 36.0887 51.4971 35.9165C51.6843 35.8416 51.9276 35.7555 52.2271 35.6582L53.2154 35.3213C53.5823 35.209 53.9641 35.0967 54.3609 34.9844L55.5064 34.6475C56.2776 34.4303 56.9289 34.2656 57.4605 34.1533L58.067 36.8823C57.8798 36.9272 57.6514 36.9759 57.3819 37.0283L54.6417 37.5449L53.8668 37.7021C53.6422 37.7546 53.4737 37.7957 53.3614 37.8257C53.1518 38.6642 53.0469 39.8809 53.0469 41.4756C53.0469 43.557 53.1742 45.0918 53.4288 46.0801C53.7432 46.1549 54.0839 46.2298 54.4507 46.3047L56.7642 46.7764L57.8536 46.9785L57.2247 49.5728C56.5508 49.453 55.9369 49.3257 55.3829 49.1909C53.279 48.6893 52.0699 48.3861 51.7554 48.2812ZM65.6718 49.0674C65.3573 48.9925 65.1065 48.8914 64.9193 48.7642C64.7397 48.6369 64.5749 48.3823 64.4252 48.0005C64.2829 47.6112 64.1444 47.0983 64.0097 46.4619C63.8824 45.818 63.7738 45.1405 63.684 44.4292C63.5118 43.0666 63.4257 41.8949 63.4257 40.9141C63.4257 39.2145 63.4706 38.1439 63.5605 37.7021C63.6503 37.2529 63.7439 36.9085 63.8412 36.6689C63.9385 36.4294 64.0658 36.216 64.223 36.0288C64.515 35.6694 64.9193 35.3962 65.4359 35.209C65.9525 35.0218 66.5066 34.8683 67.098 34.7485C67.6895 34.6213 68.3184 34.5164 68.9848 34.4341C70.31 34.2694 71.7362 34.172 73.2636 34.1421L73.6791 36.8599C71.0063 36.9647 68.865 37.1855 67.2553 37.5225C66.9258 37.5973 66.6526 37.6759 66.4355 37.7583C66.3456 38.2674 66.3007 38.9899 66.3007 39.9258C66.3007 40.8617 66.3119 41.5879 66.3344 42.1045C66.3568 42.6211 66.3905 43.1377 66.4355 43.6543C66.5328 44.8223 66.6863 45.818 66.8959 46.6416C67.0007 46.6566 67.1093 46.6641 67.2216 46.6641C67.3339 46.6641 67.5398 46.6641 67.8393 46.6641C68.543 46.6641 69.2618 46.578 69.9955 46.4058C70.3699 43.9725 70.557 41.2809 70.557 38.3311L73.3534 38.5107C73.3909 39.0348 73.4096 39.4953 73.4096 39.8921C73.4096 40.2814 73.3946 40.7007 73.3647 41.1499C73.3422 41.5916 73.3085 42.0446 73.2636 42.5088C73.2187 42.9655 73.1662 43.4259 73.1063 43.8901C73.0465 44.3468 72.9866 44.7848 72.9267 45.2041C72.8668 45.6159 72.8069 45.9977 72.747 46.3496L72.5897 47.2256C72.4625 47.8395 72.3165 48.2288 72.1518 48.3936C71.9945 48.5583 71.8411 48.6743 71.6913 48.7417C71.5491 48.8016 71.3656 48.854 71.141 48.8989C70.9164 48.9438 70.6693 48.9813 70.3998 49.0112C70.1378 49.0487 69.8607 49.0786 69.5688 49.1011C69.2768 49.1235 68.996 49.1423 68.7265 49.1572C68.2772 49.1722 67.8617 49.1797 67.4799 49.1797C66.5889 49.1797 65.9862 49.1423 65.6718 49.0674Z" fill="#F2EFE9"/>
</g>
<defs>
<clipPath id="clip0_37_37">
<rect width="78" height="67" fill="white"/>
</clipPath>
</defs>
</svg>
